<svg width="186" height="116" viewBox="0 0 186 116" fill="none" xmlns="http://www.w3.org/2000/svg">
<path d="M69.1699 6.00119C70.0123 7.03714 71.4147 7.42911 72.6704 6.97972C74.3049 6.39442 75.0975 4.64313 74.6249 3.08932L80.1812 4.83019L83.748 11.7424C84.1805 12.5806 85.0436 13.1071 85.985 13.1071C87.9425 13.107 89.1517 10.9656 88.1445 9.28297L87.7521 8.62812L92.7697 10.5752L94.5681 20.483C94.8479 22.0253 96.1874 23.1462 97.7512 23.1462C98.4187 23.1462 99.0381 22.9423 99.5533 22.5951L88.9656 35.456C82.349 27.2253 72.1255 21.9452 60.6518 21.9452C49.7284 21.9454 39.9375 26.7301 33.314 34.2913C26.8363 40.1703 22.8126 48.381 22.8125 57.4674C22.8125 66.0978 26.4421 73.9384 32.3567 79.7413C38.9738 87.9591 49.1885 93.2295 60.6518 93.2296C71.7287 93.2296 81.6386 88.3073 88.2645 80.5611L88.5594 80.8436L102.693 94.2894L102.018 95.2017L92.661 97.0775C91.3552 97.3396 90.4153 98.4894 90.4153 99.8244C90.4156 101.371 91.6665 102.625 93.2096 102.625H93.6458L84.8802 108.959L75.0711 106.833H74.5575L73.9464 107.254C72.6694 108.961 73.4358 111.42 75.4548 112.094L76.5233 112.452L69.6435 115.061L60.2831 109.769C59.2726 109.197 58.0221 109.27 57.0838 109.953C55.438 111.153 55.4604 113.621 57.1275 114.791L57.6737 115.175H50.2478L43.1056 108.246C42.0409 107.214 40.3772 107.135 39.2202 108.063C37.8936 109.126 37.7375 111.092 38.8803 112.352L40.3449 113.968L32.5604 111.484L28.9512 102.075C28.5628 101.063 27.5924 100.395 26.5105 100.394C24.7541 100.394 23.4959 102.095 24.0073 103.78L24.4284 105.167L18.221 100.83L14.7355 87.3509C14.4285 86.1641 13.3605 85.3352 12.1373 85.3351C10.4853 85.3351 9.22443 86.8167 9.48543 88.4519L9.71038 89.8541L5.40257 85.0389L8.37317 73.8751C8.6019 73.0153 8.38905 72.0966 7.80455 71.4269C6.61441 70.0636 4.44416 70.2585 3.51423 71.8118L1.85459 74.5825L0.0899803 66.9141L5.71125 59.637C6.40001 58.7452 6.5883 57.5623 6.20989 56.5002C5.46634 54.414 2.92523 53.6363 1.146 54.9505L0 55.7978V49.098L7.06096 44.0416C8.77902 42.8114 9.03618 40.3517 7.60959 38.7915C6.54867 37.6315 4.84848 37.3167 3.44425 38.0204L2.48821 38.4991L5.07639 30.917L16.7488 25.1907C17.7355 24.7067 18.361 23.7012 18.361 22.6001C18.3606 20.7355 16.6218 19.3619 14.813 19.7969L13.6058 20.0869L17.7349 15.6166H28.0614C29.4641 15.6166 30.6019 14.4769 30.6021 13.0709C30.602 11.9342 29.8503 10.935 28.76 10.6227L24.5134 9.40545L31.8143 5.13638L40.225 8.36067C40.802 8.58173 41.434 8.61392 42.0308 8.4544C44.392 7.82313 44.9975 4.74656 43.0518 3.26429L40.9286 1.64714L47.3197 0.0937295L54.1482 5.2851C54.9383 5.88596 55.9618 6.08737 56.9201 5.83123C59.1887 5.22445 60.064 2.4644 58.561 0.656107L58.0161 0H64.291L69.1699 6.00119Z" fill="#550000"/>
<path d="M101.659 20.0369L100.73 21.1654C100.894 20.7772 100.987 20.3512 100.987 19.9032V19.307L101.659 20.0369Z" fill="#550000"/>
<path d="M62.5577 59.5425H72.4701V69.5907H62.5577V59.5425Z" fill="#550000"/>
<path d="M68.1332 64.1152H72.4021V64.7433H68.1332V69.5907H67.5136V64.7433H62.4219V64.1152H67.5136V59.5425H68.1332V64.1152Z" fill="white"/>
<path d="M106.519 77.1269H116.431V87.175H106.519V77.1269Z" fill="#550000"/>
<path d="M112.094 81.6996H116.363V82.3276H112.094V87.175H111.475V82.3276H106.383V81.6996H111.475V77.1269H112.094V81.6996Z" fill="white"/>
<path d="M95.0785 73.3161L68.074 38.8182L94.4505 49.4944L104.643 62.4182L112.035 54.5185L165.416 69.5907L183 91.5711H138.411L112.035 54.5185L103.456 63.7708L95.0785 73.3161Z" fill="#550000"/>
<path d="M47.9776 91.5711V73.3161H54.2578H36.0454L68.074 38.8182M68.074 38.8182L95.0785 73.3161M68.074 38.8182L94.4505 49.4944L104.643 62.4182M95.0785 73.3161L81.2622 89.0591M95.0785 73.3161L103.456 63.7708L112.035 54.5185M81.2622 89.0591H98.2185M81.2622 89.0591L104.643 62.4182M112.035 54.5185L138.411 91.5711H183L165.416 69.5907L112.035 54.5185ZM112.035 54.5185L104.643 62.4182" stroke="#550000" stroke-width="2"/>
</svg>
